<?xml version="1.0" encoding="UTF-8" standalone="no"?>
<svg
   viewBox="0 0 48 48"
   width="48px"
   height="48px"
   fill="#03A9F4"
   version="1.1"
   id="svg1"
   sodipodi:docname="Twitter.svg"
   inkscape:version="1.3 (0e150ed6c4, 2023-07-21)"
   xmlns:inkscape="http://www.inkscape.org/namespaces/inkscape"
   xmlns:sodipodi="http://sodipodi.sourceforge.net/DTD/sodipodi-0.dtd"
   xmlns="http://www.w3.org/2000/svg"
   xmlns:svg="http://www.w3.org/2000/svg">
  <defs
     id="defs1" />
  <sodipodi:namedview
     id="namedview1"
     pagecolor="#ffffff"
     bordercolor="#000000"
     borderopacity="0.25"
     inkscape:showpageshadow="2"
     inkscape:pageopacity="0.0"
     inkscape:pagecheckerboard="0"
     inkscape:deskcolor="#d1d1d1"
     inkscape:zoom="17.041667"
     inkscape:cx="24"
     inkscape:cy="24"
     inkscape:window-width="1920"
     inkscape:window-height="1019"
     inkscape:window-x="0"
     inkscape:window-y="343"
     inkscape:window-maximized="1"
     inkscape:current-layer="svg1" />
  <path
     fill="#03a9f4"
     d="M 47.900837,8.7999596 C 46.144162,9.5780486 44.254707,10.097217 42.261684,10.34286 44.287902,9.1398756 45.846735,7.221209 46.578352,4.9546596 44.682257,6.0660256 42.581683,6.8826208 40.347,7.312827 38.562441,5.4207163 36.017054,4.2469438 33.196814,4.2469438 c -5.417412,0 -9.808437,4.3525185 -9.808437,9.7194742 0,0.7595 0.08896,1.499082 0.256265,2.217421 C 15.494624,15.774877 8.2660975,11.900366 3.4302609,6.0208805 2.5804708,7.4575569 2.1024639,9.1398756 2.1024639,10.91514 c 0,3.373932 1.7274638,6.344214 4.3618131,8.094251 -1.6079622,-0.04913 -3.1216507,-0.496596 -4.4467921,-1.213607 0,0.02921 0,0.07303 0,0.114191 0,4.715007 3.3818989,8.641302 7.8645415,9.53491 -0.8192507,0.224398 -1.6849744,0.34921 -2.577254,0.34921 -0.6333591,0 -1.2507847,-0.0717 -1.8482934,-0.179252 1.2481292,3.853267 4.869032,6.669524 9.159144,6.753175 -3.356671,2.602482 -7.5843767,4.161316 -12.1812099,4.161316 -0.7940226,0 -1.57078381,-0.04514 -2.33825047,-0.138091 4.34322397,2.749868 9.50038737,4.361813 15.03597337,4.361813 18.038122,0 27.906309,-14.812903 27.906309,-27.663322 0,-0.420912 -0.01328,-0.840496 -0.0332,-1.254768 1.925306,-1.359664 3.585052,-3.075178 4.895587,-5.0350064"
     id="path1"
     style="stroke-width:1.3278" />
</svg>
