<?xml version="1.0" encoding="UTF-8" standalone="no"?>
<svg
   xmlns:dc="http://purl.org/dc/elements/1.1/"
   xmlns:cc="http://creativecommons.org/ns#"
   xmlns:rdf="http://www.w3.org/1999/02/22-rdf-syntax-ns#"
   xmlns:svg="http://www.w3.org/2000/svg"
   xmlns="http://www.w3.org/2000/svg"
   xmlns:sodipodi="http://sodipodi.sourceforge.net/DTD/sodipodi-0.dtd"
   xmlns:inkscape="http://www.inkscape.org/namespaces/inkscape"
   inkscape:version="1.0 (4035a4fb49, 2020-05-01)"
   sodipodi:docname="Unity.svg"
   height="500"
   width="500"
   xml:space="preserve"
   viewBox="0 0 750 750"
   y="0"
   x="0"
   id="Logo"
   version="1.1"><metadata
     id="metadata19"><rdf:RDF><cc:Work
         rdf:about=""><dc:format>image/svg+xml</dc:format><dc:type
           rdf:resource="http://purl.org/dc/dcmitype/StillImage" /><dc:title></dc:title></cc:Work></rdf:RDF></metadata><defs
     id="defs17" /><sodipodi:namedview
     inkscape:document-rotation="0"
     inkscape:current-layer="g849"
     inkscape:window-maximized="1"
     inkscape:window-y="-8"
     inkscape:window-x="-8"
     inkscape:cy="260.36184"
     inkscape:cx="415.97621"
     inkscape:zoom="1.4142136"
     showgrid="false"
     id="namedview15"
     inkscape:window-height="1057"
     inkscape:window-width="1858"
     inkscape:pageshadow="2"
     inkscape:pageopacity="0"
     guidetolerance="10"
     gridtolerance="10"
     objecttolerance="10"
     borderopacity="1"
     bordercolor="#666666"
     pagecolor="#ffffff" /><style
     id="style2">.st0{fill:#4c4c4c}</style><g
     id="g849"><path
       id="path886"
       style="fill:#000000;fill-opacity:1;stroke-width:15.1972;stroke-miterlimit:4;stroke-dasharray:none"
       d="m 697.96282,561.91675 -0.79124,-372.46632 -322.96091,185.54789 0.78931,372.46969 z" /><path
       d="M 52.037175,561.91675 52.828416,189.45043 375.78933,374.99832 375.00002,747.46801 Z"
       style="fill:#4d4d4d;fill-opacity:1;stroke-width:15.1972;stroke-miterlimit:4;stroke-dasharray:none"
       id="path888" /><path
       d="M 374.99807,2.5319884 52.828416,189.45043 374.99807,376.36886 697.17158,189.45043 Z"
       style="fill:#808080;fill-opacity:1;stroke-width:15.1972;stroke-miterlimit:4;stroke-dasharray:none"
       id="path878" /><path
       sodipodi:nodetypes="ccccccccccsccscc"
       style="fill:#ebebeb;fill-opacity:1;stroke-width:10.0617"
       id="path12"
       d="M 330.72681,511.19494 254.25828,466.92369 179.80209,510.18878 375.25965,622.87924 374.99807,376.36886 161.69302,252.6118 160.68496,477.99151 v -1.00617 1.00617 l 74.4562,-43.26509 v -88.54251 c 0,-3.01849 4.02466,-5.03082 6.03699,-4.02466 l 90.55483,52.32058 c 3.01849,2.01233 4.02465,4.02466 4.02465,7.04315 v 104.64114 c 1.00617,4.02466 -2.01232,7.04315 -5.03082,5.03082 z"
       class="st0" /><path
       sodipodi:nodetypes="ccccssccsccccc"
       style="fill:#d9d9d9;fill-opacity:1;stroke-width:10.0617"
       id="path8"
       d="M 375.26154,622.88046 570.19593,510.19 495.73974,466.92491 419.27121,511.19616 c -3.01849,2.01233 -6.03699,0 -6.03699,-4.02466 V 402.53036 c 0,-3.0185 2.01233,-6.03699 4.02466,-7.04315 l 90.55483,-52.32057 c 3.01849,-2.01233 6.03699,0 6.03699,4.02466 v 88.5425 l 74.45619,43.26509 V 252.6118 L 374.99996,376.37007 Z" /><path
       style="fill:#ffffff;fill-opacity:1;stroke-width:10.0617"
       id="path10"
       fill="#808080"
       d="m 394.11709,139.92135 v 86.53017 l 76.46852,44.27125 c 3.0185,2.01233 3.0185,6.03699 0,7.04315 l -90.55483,52.32058 c -3.01849,2.01233 -6.03698,1.00616 -8.04931,0 l -90.55484,-52.32058 c -3.0185,-1.00616 -3.0185,-6.03698 0,-7.04315 l 76.46852,-44.27125 V 139.92135 L 161.69302,252.6118 374.99996,376.37007 588.30689,252.6118 Z" /></g></svg>
